<svg xmlns="http://www.w3.org/2000/svg" viewBox="0 0 102.05 153.07"><defs><style>.cls-1{fill:#e84551;}</style></defs><title>ICO_01</title><g id="Capa_2" data-name="Capa 2"><g id="Capa_1-2" data-name="Capa 1"><polygon class="cls-1" points="51.02 34.02 51.02 17.01 0 17.01 0 51.12 0 102.51 0 136.06 51.02 136.06 51.02 119.06 17.01 119.06 17.01 102.05 51.02 102.05 51.02 85.04 17.01 85.04 17.01 68.03 51.02 68.03 51.02 51.02 17.01 51.02 17.01 34.02 51.02 34.02"/><polygon class="cls-1" points="51.02 0 51.02 17.01 85.04 17.01 85.04 34.02 51.02 34.02 51.02 51.02 85.04 51.02 85.04 68.03 51.02 68.03 51.02 85.04 85.04 85.04 85.04 102.05 51.02 102.05 51.02 119.06 85.04 119.06 85.04 136.06 51.02 136.06 51.02 153.07 102.05 153.07 102.05 0 51.02 0"/></g></g></svg>