<?xml version="1.0" encoding="UTF-8" standalone="no"?>
<svg
   viewBox="0 0 143.99 153.35"
   version="1.1"
   id="svg20"
   sodipodi:docname="logo.svg"
   inkscape:version="1.1.1 (3bf5ae0d25, 2021-09-20)"
   xmlns:inkscape="http://www.inkscape.org/namespaces/inkscape"
   xmlns:sodipodi="http://sodipodi.sourceforge.net/DTD/sodipodi-0.dtd"
   xmlns="http://www.w3.org/2000/svg"
   xmlns:svg="http://www.w3.org/2000/svg"
   xmlns:rdf="http://www.w3.org/1999/02/22-rdf-syntax-ns#"
   xmlns:cc="http://creativecommons.org/ns#"
   xmlns:dc="http://purl.org/dc/elements/1.1/">
  <sodipodi:namedview
     id="namedview22"
     pagecolor="#ffffff"
     bordercolor="#666666"
     borderopacity="1.0"
     inkscape:pageshadow="2"
     inkscape:pageopacity="0.0"
     inkscape:pagecheckerboard="0"
     showgrid="false"
     inkscape:zoom="1.3563743"
     inkscape:cx="63.035697"
     inkscape:cy="-1.1058894"
     inkscape:window-width="1920"
     inkscape:window-height="1017"
     inkscape:window-x="470"
     inkscape:window-y="-8"
     inkscape:window-maximized="1"
     inkscape:current-layer="svg20" />
  <defs
     id="defs4">
    <style
       id="style2">.cls-1{fill:#fff;}</style>
  </defs>
  <title
     id="title6">ISOLOGO_05_WHITE</title>
  <g
     id="Capa_2"
     data-name="Capa 2"
     style="fill:#e94c57;fill-opacity:1">
    <g
       id="Capa_1-2"
       data-name="Capa 1"
       style="fill:#e94c57;fill-opacity:1">
      <path
         class="cls-1"
         d="M144,0V34.21h-7.39V20.62H126.44V34.21h-7.38V0h7.38V13.1h10.15V0Z"
         id="path8"
         style="fill:#e94c57;fill-opacity:1" />
      <path
         class="cls-1"
         d="M143.89,86.19v7.5H119.06V59.6h24.83v7.5H126.41v5.65h17.48v7.4H126.41v6Z"
         id="path10"
         style="fill:#e94c57;fill-opacity:1" />
      <path
         class="cls-1"
         d="M144,130.86a11.76,11.76,0,0,1-12,11.73h-5.57v10.76h-7.38V119.12H132A11.76,11.76,0,0,1,144,130.86Zm-7.82,0a4.18,4.18,0,0,0-4.16-4.4h-5.57v8.8H132A4.18,4.18,0,0,0,136.17,130.86Z"
         id="path12"
         style="fill:#e94c57;fill-opacity:1" />
      <polygon
         class="cls-1"
         points="51.02 34.15 51.02 17.15 0 17.15 0 51.26 0 102.65 0 136.2 51.02 136.2 51.02 119.19 17.01 119.19 17.01 102.19 51.02 102.19 51.02 85.18 17.01 85.18 17.01 68.17 51.02 68.17 51.02 51.16 17.01 51.16 17.01 34.15 51.02 34.15"
         id="polygon14"
         style="fill:#e94c57;fill-opacity:1" />
      <polygon
         class="cls-1"
         points="51.02 0.14 51.02 17.15 85.04 17.15 85.04 34.15 51.02 34.15 51.02 51.16 85.04 51.16 85.04 68.17 51.02 68.17 51.02 85.18 85.04 85.18 85.04 102.19 51.02 102.19 51.02 119.19 85.04 119.19 85.04 136.2 51.02 136.2 51.02 153.21 102.05 153.21 102.05 0.14 51.02 0.14"
         id="polygon16"
         style="fill:#e94c57;fill-opacity:1" />
    </g>
  </g>
  <metadata
     id="metadata829">
    <rdf:RDF>
      <cc:Work
         rdf:about="">
        <dc:title>ISOLOGO_05_WHITE</dc:title>
      </cc:Work>
    </rdf:RDF>
  </metadata>
</svg>
